<?xml version="1.0" encoding="utf-8"?>
<!-- Generator: Adobe Illustrator 25.2.3, SVG Export Plug-In . SVG Version: 6.00 Build 0)  -->
<svg version="1.1" id="Lager_1" xmlns="http://www.w3.org/2000/svg" xmlns:xlink="http://www.w3.org/1999/xlink" x="0px" y="0px"
	 viewBox="0 0 800 458" style="enable-background:new 0 0 800 458;" xml:space="preserve">
<style type="text/css">
	.st0{fill:#999999;}
	.st1{fill:none;stroke:#404040;stroke-width:4;stroke-miterlimit:10;}
	.st2{fill:#4ED1A1;stroke:#404040;stroke-width:4;stroke-miterlimit:10;}
	.st3{fill:#FFFFFF;stroke:#404040;stroke-width:4;stroke-miterlimit:10;}
	.st4{fill:#B3E3FF;stroke:#404040;stroke-width:4;stroke-linejoin:round;stroke-miterlimit:10;}
	.st5{fill:#4ED1A1;stroke:#404040;stroke-width:4;stroke-linecap:round;stroke-linejoin:round;stroke-miterlimit:10;}
	.st6{fill:#404040;}
	.st7{fill:none;stroke:#404040;stroke-width:4;stroke-linecap:round;stroke-linejoin:round;stroke-miterlimit:10;}
</style>
<path class="st0" d="M240.8,14V3.4h3.7c2.7,0,5.1,1.8,5.1,5.3s-2.4,5.3-5.1,5.3H240.8z M244.5,12.7c2,0,3.6-1.3,3.6-4s-1.6-4-3.6-4
	h-2.2v8H244.5z M258.5,12c-0.4,1.3-1.6,2.3-3.2,2.3c-1.9,0-3.6-1.4-3.6-3.9c0-2.3,1.6-3.8,3.4-3.8c2.2,0,3.5,1.5,3.5,3.8v0.4h-5.4
	c0,1.3,1,2.2,2.2,2.2s1.8-0.6,2-1.5L258.5,12L258.5,12z M257.1,9.7c0-1-0.7-1.8-2-1.8c-1.2,0-1.9,0.9-2,1.8H257.1z M264.3,14h-1.4
	L260,6.8h1.6l2.1,5.6l2.1-5.6h1.5L264.3,14L264.3,14z M275.3,12c-0.4,1.3-1.6,2.3-3.2,2.3c-1.9,0-3.6-1.4-3.6-3.9
	c0-2.3,1.6-3.8,3.4-3.8c2.2,0,3.5,1.5,3.5,3.8v0.4H270c0,1.3,1,2.2,2.2,2.2s1.8-0.6,2-1.5C274.2,11.5,275.3,12,275.3,12z M273.9,9.7
	c0-1-0.7-1.8-2-1.8c-1.2,0-1.9,0.9-2,1.8H273.9z M277.9,14V3.2h1.4V14H277.9z M289.2,10.4c0,2.2-1.5,3.8-3.7,3.8s-3.7-1.6-3.7-3.8
	s1.5-3.8,3.7-3.8S289.2,8.2,289.2,10.4z M287.8,10.4c0-1.7-1.1-2.6-2.2-2.6s-2.2,0.9-2.2,2.6s1.1,2.6,2.2,2.6S287.8,12.1,287.8,10.4
	z M291.8,16.9V6.8h1.4v1.1c0.4-0.7,1.2-1.3,2.4-1.3c2.2,0,3.3,1.7,3.3,3.8s-1.2,3.8-3.4,3.8c-1.1,0-1.9-0.5-2.3-1.2v3.8h-1.4V16.9z
	 M295.3,7.9c-1.3,0-2.1,1.1-2.1,2.5c0,1.5,0.9,2.5,2.1,2.5c1.3,0,2.1-1.1,2.1-2.5S296.6,7.9,295.3,7.9z M302.1,3.1c0.6,0,1,0.4,1,1
	s-0.4,1-1,1s-1-0.5-1-1C301.1,3.5,301.6,3.1,302.1,3.1z M301.4,14V6.8h1.4V14H301.4z M307.4,14H306V6.8h1.4v1
	c0.5-0.9,1.4-1.2,2.2-1.2c1.7,0,2.6,1.2,2.6,2.9V14h-1.4V9.7c0-1-0.4-1.8-1.7-1.8c-1.1,0-1.7,0.9-1.7,2C307.4,9.9,307.4,14,307.4,14
	z M316,14.1c0.1,1,0.9,1.8,2,1.8c1.5,0,2.2-0.8,2.2-2.3v-1c-0.3,0.7-1.1,1.2-2.2,1.2c-1.9,0-3.3-1.5-3.3-3.5c0-1.9,1.3-3.5,3.3-3.5
	c1.1,0,1.9,0.4,2.2,1.1v-1h1.4v6.7c0,1.8-0.9,3.6-3.6,3.6c-1.8,0-3.1-1.1-3.3-2.7L316,14.1z M320.2,10.2c0-1.4-0.8-2.3-2.1-2.3
	c-1.2,0-2.1,0.9-2.1,2.3s0.8,2.3,2.1,2.3S320.2,11.6,320.2,10.2z M330.8,9.9l1.9-0.3c0.4-0.1,0.6-0.3,0.6-0.5c0-0.7-0.5-1.3-1.6-1.3
	c-1,0-1.5,0.6-1.6,1.5L328.7,9c0.2-1.4,1.4-2.3,3-2.3c2.2,0,3,1.2,3,2.6v3.6c0,0.6,0.1,1,0.1,1.2h-1.4c0-0.2-0.1-0.5-0.1-1
	c-0.3,0.5-1,1.2-2.3,1.2c-1.5,0-2.4-1-2.4-2.2C328.6,10.8,329.6,10.1,330.8,9.9L330.8,9.9z M333.3,10.9v-0.3l-2.2,0.3
	c-0.6,0.1-1,0.4-1,1.1c0,0.5,0.4,1,1.2,1C332.4,13.1,333.3,12.5,333.3,10.9z M344.1,8.1V14h-1.5V8.1h-1.3V6.8h1.3V5.6
	c0-1.6,1.1-2.5,2.4-2.5c0.5,0,0.8,0.1,0.8,0.2v1.3c-0.1,0-0.3-0.1-0.6-0.1c-0.5,0-1.1,0.2-1.1,1.2v1.1h1.7v1.3H344.1L344.1,8.1z
	 M354,12c-0.4,1.3-1.6,2.3-3.2,2.3c-1.9,0-3.6-1.4-3.6-3.9c0-2.3,1.6-3.8,3.4-3.8c2.2,0,3.5,1.5,3.5,3.8v0.4h-5.4
	c0,1.3,1,2.2,2.2,2.2s1.8-0.6,2-1.5C352.9,11.5,354,12,354,12z M352.6,9.7c0-1-0.7-1.8-2-1.8c-1.2,0-1.9,0.9-2,1.8H352.6z
	 M358.4,9.9l1.9-0.3c0.4-0.1,0.6-0.3,0.6-0.5c0-0.7-0.5-1.3-1.6-1.3c-1,0-1.5,0.6-1.6,1.5L356.3,9c0.2-1.4,1.4-2.3,3-2.3
	c2.2,0,3,1.2,3,2.6v3.6c0,0.6,0.1,1,0.1,1.2H361c0-0.2-0.1-0.5-0.1-1c-0.3,0.5-1,1.2-2.3,1.2c-1.5,0-2.4-1-2.4-2.2
	C356.2,10.8,357.1,10.1,358.4,9.9L358.4,9.9z M360.9,10.9v-0.3l-2.2,0.3c-0.6,0.1-1,0.4-1,1.1c0,0.5,0.4,1,1.2,1
	C360,13.1,360.9,12.5,360.9,10.9z M367.1,6.8h1.6v1.3h-1.6v3.8c0,0.7,0.3,1,1,1c0.2,0,0.4,0,0.6-0.1V14c-0.1,0-0.5,0.1-1,0.1
	c-1.2,0-2-0.8-2-2.1V8h-1.4V6.8h0.4c0.8,0,1.1-0.5,1.1-1.1V4.5h1.3C367.1,4.5,367.1,6.8,367.1,6.8z M373.9,14.3
	c-1.7,0-2.7-1.3-2.7-2.9V6.8h1.4v4.3c0,1,0.4,1.9,1.6,1.9c1.1,0,1.7-0.8,1.7-1.8V6.8h1.4v5.9c0,0.6,0,1.1,0.1,1.3H376
	c0-0.2-0.1-0.6-0.1-0.9C375.7,13.9,374.8,14.3,373.9,14.3z M384.6,8.2H384c-1.2,0-2,0.6-2,2.2V14h-1.4V6.8h1.4v1.3
	c0.5-1.1,1.4-1.4,2.2-1.4h0.5v1.5H384.6z M393,12c-0.4,1.3-1.6,2.3-3.2,2.3c-1.9,0-3.6-1.4-3.6-3.9c0-2.3,1.6-3.8,3.4-3.8
	c2.2,0,3.5,1.5,3.5,3.8v0.4h-5.4c0,1.3,1,2.2,2.2,2.2s1.8-0.6,2-1.5L393,12z M391.6,9.7c0-1-0.7-1.8-2-1.8c-1.2,0-1.9,0.9-2,1.8
	H391.6z M400.8,3.1c0.6,0,1,0.4,1,1s-0.4,1-1,1s-1-0.5-1-1C399.8,3.5,400.2,3.1,400.8,3.1z M400.1,14V6.8h1.4V14H400.1z M406.1,14
	h-1.4V6.8h1.4v1c0.5-0.9,1.4-1.2,2.2-1.2c1.7,0,2.6,1.2,2.6,2.9V14h-1.4V9.7c0-1-0.4-1.8-1.7-1.8c-1.1,0-1.7,0.9-1.7,2V14z
	 M420.1,9.9l1.9-0.3c0.4-0.1,0.6-0.3,0.6-0.5c0-0.7-0.5-1.3-1.6-1.3c-1,0-1.5,0.6-1.6,1.5L418,8.9c0.2-1.4,1.4-2.3,3-2.3
	c2.2,0,3,1.2,3,2.6v3.6c0,0.6,0.1,1,0.1,1.2h-1.4c0-0.2-0.1-0.5-0.1-1c-0.3,0.5-1,1.2-2.3,1.2c-1.5,0-2.4-1-2.4-2.2
	S418.8,10.1,420.1,9.9L420.1,9.9z M422.6,10.9v-0.3l-2.2,0.3c-0.6,0.1-1,0.4-1,1.1c0,0.5,0.4,1,1.2,1
	C421.7,13.1,422.6,12.5,422.6,10.9z M436.5,12.9c-0.3,0.7-1.1,1.3-2.2,1.3c-2.1,0-3.4-1.7-3.4-3.8c0-2,1.4-3.8,3.4-3.8
	c1.3,0,2,0.6,2.2,1.2V3.2h1.4v9.5c0,0.7,0.1,1.2,0.1,1.3h-1.4C436.6,13.8,436.5,13.5,436.5,12.9C436.5,13,436.5,12.9,436.5,12.9z
	 M434.4,13c1.3,0,2.1-1.1,2.1-2.6s-0.8-2.5-2.1-2.5s-2.1,1-2.1,2.5S433,13,434.4,13z M447.3,12c-0.4,1.3-1.6,2.3-3.2,2.3
	c-1.9,0-3.6-1.4-3.6-3.9c0-2.3,1.6-3.8,3.4-3.8c2.2,0,3.5,1.5,3.5,3.8v0.4H442c0,1.3,1,2.2,2.2,2.2s1.8-0.6,2-1.5
	C446.2,11.5,447.3,12,447.3,12z M445.9,9.7c0-1-0.7-1.8-2-1.8c-1.2,0-1.9,0.9-2,1.8H445.9z M454.9,12.9c-0.3,0.7-1.1,1.3-2.2,1.3
	c-2.1,0-3.4-1.7-3.4-3.8c0-2,1.4-3.8,3.4-3.8c1.3,0,2,0.6,2.2,1.2V3.2h1.4v9.5c0,0.7,0.1,1.2,0.1,1.3H455
	C455,13.8,454.9,13.5,454.9,12.9C454.9,13,454.9,12.9,454.9,12.9z M452.8,13c1.3,0,2.1-1.1,2.1-2.6s-0.8-2.5-2.1-2.5s-2.1,1-2.1,2.5
	S451.5,13,452.8,13z M460.1,3.1c0.6,0,1,0.4,1,1s-0.4,1-1,1s-1-0.5-1-1C459.1,3.5,459.6,3.1,460.1,3.1z M459.5,14V6.8h1.4V14H459.5z
	 M464.8,10.4c0,1.6,1,2.5,2.2,2.5c1.3,0,1.8-0.9,2-1.5l1.2,0.5c-0.3,1-1.4,2.2-3.3,2.2c-2.1,0-3.6-1.6-3.6-3.8s1.6-3.8,3.6-3.8
	c1.9,0,2.9,1.2,3.2,2.3L469,9.4c-0.2-0.7-0.7-1.5-1.9-1.5S464.8,8.7,464.8,10.4L464.8,10.4z M474.4,9.9l1.9-0.3
	c0.4-0.1,0.6-0.3,0.6-0.5c0-0.7-0.5-1.3-1.6-1.3c-1,0-1.5,0.6-1.6,1.5L472.3,9c0.2-1.4,1.4-2.3,3-2.3c2.2,0,3,1.2,3,2.6v3.6
	c0,0.6,0.1,1,0.1,1.2H477c0-0.2-0.1-0.5-0.1-1c-0.3,0.5-1,1.2-2.3,1.2c-1.5,0-2.4-1-2.4-2.2C472.2,10.8,473.1,10.1,474.4,9.9
	L474.4,9.9z M476.9,10.9v-0.3l-2.2,0.3c-0.6,0.1-1.1,0.4-1.1,1.1c0,0.5,0.4,1,1.2,1C475.9,13.1,476.9,12.5,476.9,10.9z M483.1,6.8
	h1.6v1.3h-1.6v3.8c0,0.7,0.3,1,1,1c0.2,0,0.4,0,0.6-0.1V14c-0.1,0-0.5,0.1-1,0.1c-1.2,0-2-0.8-2-2.1V8h-1.4V6.8h0.4
	c0.8,0,1.1-0.5,1.1-1.1V4.5h1.3C483.1,4.5,483.1,6.8,483.1,6.8z M493.5,12c-0.4,1.3-1.6,2.3-3.2,2.3c-1.9,0-3.6-1.4-3.6-3.9
	c0-2.3,1.6-3.8,3.4-3.8c2.2,0,3.5,1.5,3.5,3.8v0.4h-5.4c0,1.3,1,2.2,2.2,2.2s1.8-0.6,2-1.5C492.4,11.5,493.5,12,493.5,12z
	 M492.1,9.7c0-1-0.7-1.8-2-1.8c-1.2,0-1.9,0.9-2,1.8H492.1z M501.2,12.9c-0.3,0.7-1.1,1.3-2.2,1.3c-2.1,0-3.4-1.7-3.4-3.8
	c0-2,1.4-3.8,3.4-3.8c1.3,0,2,0.6,2.2,1.2V3.2h1.4v9.5c0,0.7,0.1,1.2,0.1,1.3h-1.4C501.3,13.8,501.2,13.5,501.2,12.9
	C501.2,13,501.2,12.9,501.2,12.9z M499.1,13c1.3,0,2.1-1.1,2.1-2.6s-0.8-2.5-2.1-2.5s-2.1,1-2.1,2.5S497.7,13,499.1,13z M510.2,14
	V3.2h1.4v4.7c0.3-0.6,1.2-1.2,2.4-1.2c2.2,0,3.3,1.7,3.3,3.8s-1.2,3.8-3.4,3.8c-1.1,0-1.9-0.5-2.3-1.2v1h-1.4V14z M513.7,7.9
	c-1.2,0-2.1,1-2.1,2.5c0,1.6,0.9,2.6,2.1,2.6c1.3,0,2.1-1,2.1-2.6S515,7.9,513.7,7.9z M523.8,8.2h-0.6c-1.2,0-2,0.6-2,2.2V14h-1.4
	V6.8h1.4v1.3c0.5-1.1,1.4-1.4,2.2-1.4h0.5v1.5L523.8,8.2z M527.8,9.9l1.9-0.3c0.4-0.1,0.6-0.3,0.6-0.5c0-0.7-0.5-1.3-1.6-1.3
	c-1,0-1.5,0.6-1.6,1.5L525.7,9c0.2-1.4,1.4-2.3,3-2.3c2.2,0,3,1.2,3,2.6v3.6c0,0.6,0.1,1,0.1,1.2h-1.4c0-0.2-0.1-0.5-0.1-1
	c-0.3,0.5-1,1.2-2.3,1.2c-1.5,0-2.4-1-2.4-2.2C525.6,10.8,526.6,10.1,527.8,9.9z M530.3,10.9v-0.3l-2.2,0.3
	c-0.6,0.1-1.1,0.4-1.1,1.1c0,0.5,0.4,1,1.2,1C529.4,13.1,530.3,12.5,530.3,10.9z M536.1,14h-1.4V6.8h1.4v1c0.5-0.9,1.4-1.2,2.2-1.2
	c1.7,0,2.6,1.2,2.6,2.9V14h-1.4V9.7c0-1-0.4-1.8-1.7-1.8c-1.1,0-1.7,0.9-1.7,2L536.1,14L536.1,14z M544.7,10.4c0,1.6,1,2.5,2.2,2.5
	c1.3,0,1.8-0.9,2-1.5l1.2,0.5c-0.3,1-1.4,2.2-3.3,2.2c-2.1,0-3.6-1.6-3.6-3.8s1.6-3.8,3.6-3.8c1.9,0,2.9,1.2,3.2,2.3l-1.3,0.5
	c-0.2-0.7-0.7-1.5-1.9-1.5C545.7,7.9,544.7,8.7,544.7,10.4L544.7,10.4z M554,14h-1.4V3.2h1.4v4.5c0.5-0.8,1.4-1.1,2.2-1.1
	c1.7,0,2.6,1.2,2.6,2.9V14h-1.4V9.7c0-1-0.4-1.8-1.7-1.8c-1.1,0-1.6,0.8-1.7,1.9L554,14L554,14z"/>
<path class="st1" d="M236.2,309.4h216.1 M293.9,268.4c0,22.6-18.4,41-41,41 M293.9,268.4c0-22.6,18.4-41,41-41h311.2"/>
<circle class="st2" cx="378.3" cy="227.4" r="21"/>
<circle class="st2" cx="474.5" cy="227.4" r="21"/>
<circle class="st2" cx="570.8" cy="227.4" r="21"/>
<circle class="st2" cx="667.1" cy="227.4" r="21"/>
<path class="st1" d="M82.9,309.4h170"/>
<circle class="st3" cx="103.9" cy="309.4" r="21"/>
<circle class="st3" cx="199.9" cy="309.4" r="21"/>
<circle class="st4" cx="377.3" cy="309.4" r="21"/>
<circle class="st4" cx="473.3" cy="309.4" r="21"/>
<path class="st5" d="M617.1,86.4h100v50h-100V86.4z"/>
<path class="st6" d="M640.3,117.4v-10.6h6.5v1.4h-5v3.4h4.5v1.4h-4.5v4.5h-1.5V117.4z M654.9,115.4c-0.4,1.3-1.6,2.3-3.2,2.3
	c-1.9,0-3.6-1.4-3.6-3.9c0-2.3,1.6-3.8,3.4-3.8c2.2,0,3.5,1.5,3.5,3.8v0.4h-5.4c0,1.3,1,2.2,2.2,2.2s1.8-0.6,2-1.5L654.9,115.4z
	 M653.5,113.1c0-1-0.7-1.8-2-1.8c-1.2,0-1.9,0.9-2,1.8H653.5z M659.3,113.3l1.9-0.3c0.4-0.1,0.6-0.3,0.6-0.5c0-0.7-0.5-1.3-1.6-1.3
	c-1,0-1.5,0.6-1.6,1.5l-1.4-0.3c0.2-1.4,1.4-2.3,3-2.3c2.2,0,3,1.2,3,2.6v3.6c0,0.6,0.1,1,0.1,1.2h-1.4c0-0.2-0.1-0.5-0.1-1
	c-0.3,0.5-1,1.2-2.3,1.2c-1.5,0-2.4-1-2.4-2.2C657.1,114.2,658,113.5,659.3,113.3L659.3,113.3z M661.8,114.4V114l-2.2,0.3
	c-0.6,0.1-1.1,0.4-1.1,1.1c0,0.5,0.4,1,1.2,1C660.8,116.5,661.8,115.9,661.8,114.4z M668,110.2h1.6v1.3H668v3.8c0,0.7,0.3,1,1,1
	c0.2,0,0.4,0,0.6-0.1v1.2c-0.1,0-0.5,0.1-1,0.1c-1.2,0-2-0.8-2-2.1v-4h-1.4v-1.3h0.4c0.8,0,1.1-0.5,1.1-1.1v-1.2h1.3L668,110.2
	L668,110.2z M674.8,117.7c-1.7,0-2.7-1.3-2.7-2.9v-4.5h1.4v4.3c0,1,0.4,1.9,1.6,1.9c1.1,0,1.7-0.8,1.7-1.8v-4.4h1.4v5.9
	c0,0.6,0,1.1,0.1,1.3H677c0-0.2-0.1-0.6-0.1-0.9C676.5,117.3,675.6,117.7,674.8,117.7L674.8,117.7z M685.4,111.7h-0.6
	c-1.2,0-2,0.6-2,2.2v3.6h-1.4v-7.2h1.4v1.3c0.5-1.1,1.4-1.4,2.2-1.4h0.5v1.5H685.4z M693.9,115.4c-0.4,1.3-1.6,2.3-3.2,2.3
	c-1.9,0-3.6-1.4-3.6-3.9c0-2.3,1.6-3.8,3.4-3.8c2.2,0,3.5,1.5,3.5,3.8v0.4h-5.4c0,1.3,1,2.2,2.2,2.2s1.8-0.6,2-1.5L693.9,115.4z
	 M692.5,113.1c0-1-0.7-1.8-2-1.8c-1.2,0-1.9,0.9-2,1.8H692.5z"/>
<path class="st7" d="M667.1,182.3v-23.5 M678,173.6l-10.9,10.8l-10.9-10.8"/>
<path class="st4" d="M423.3,401.4h100v50h-100V401.4z"/>
<path class="st7" d="M473.3,354.9v23.5 M462.4,363.6l10.9-10.9l10.8,10.9"/>
<g>
	<path d="M458.8,432.5v-10h2l2.4,7.1c0.2,0.7,0.4,1.2,0.5,1.5c0.1-0.4,0.3-0.9,0.5-1.6l2.4-7h1.8v10h-1.3v-8.4l-2.9,8.4H463
		l-2.9-8.5v8.5H458.8z"/>
	<path d="M475.8,431.6c-0.5,0.4-0.9,0.7-1.3,0.8c-0.4,0.2-0.9,0.2-1.4,0.2c-0.8,0-1.4-0.2-1.8-0.6c-0.4-0.4-0.6-0.9-0.6-1.5
		c0-0.4,0.1-0.7,0.2-1c0.2-0.3,0.4-0.5,0.6-0.7c0.3-0.2,0.6-0.3,0.9-0.4c0.2-0.1,0.6-0.1,1.1-0.2c1-0.1,1.7-0.3,2.2-0.4
		c0-0.2,0-0.3,0-0.3c0-0.5-0.1-0.9-0.3-1.1c-0.3-0.3-0.8-0.4-1.4-0.4c-0.6,0-1,0.1-1.3,0.3c-0.3,0.2-0.5,0.6-0.6,1.1l-1.2-0.2
		c0.1-0.5,0.3-0.9,0.5-1.2c0.3-0.3,0.6-0.6,1.1-0.7c0.5-0.2,1-0.3,1.6-0.3c0.6,0,1.1,0.1,1.5,0.2s0.7,0.3,0.9,0.6
		c0.2,0.2,0.3,0.5,0.4,0.8c0,0.2,0.1,0.6,0.1,1.1v1.6c0,1.1,0,1.9,0.1,2.2c0.1,0.3,0.2,0.6,0.3,0.9H476
		C475.9,432.3,475.8,432,475.8,431.6z M475.7,428.9c-0.4,0.2-1.1,0.3-2,0.5c-0.5,0.1-0.9,0.2-1.1,0.2s-0.4,0.2-0.5,0.4
		c-0.1,0.2-0.2,0.4-0.2,0.6c0,0.3,0.1,0.6,0.4,0.8c0.2,0.2,0.6,0.3,1.1,0.3c0.5,0,0.9-0.1,1.3-0.3c0.4-0.2,0.6-0.5,0.8-0.9
		c0.1-0.3,0.2-0.7,0.2-1.2V428.9z"/>
	<path d="M479.5,423.9v-1.4h1.2v1.4H479.5z M479.5,432.5v-7.3h1.2v7.3H479.5z"/>
	<path d="M483.3,432.5v-7.3h1.1v1c0.5-0.8,1.3-1.2,2.3-1.2c0.4,0,0.8,0.1,1.2,0.2c0.4,0.2,0.6,0.4,0.8,0.6s0.3,0.6,0.4,0.9
		c0,0.2,0.1,0.6,0.1,1.2v4.5H488v-4.4c0-0.5,0-0.9-0.1-1.1c-0.1-0.2-0.3-0.4-0.5-0.6c-0.2-0.1-0.5-0.2-0.9-0.2c-0.5,0-1,0.2-1.4,0.5
		c-0.4,0.3-0.6,1-0.6,1.9v4H483.3z"/>
</g>
</svg>
